<svg xmlns="http://www.w3.org/2000/svg" xml:space="preserve" id="Layer_1" x="0" y="0" style="enable-background:new 0 0 208 48" version="1.1" viewBox="0 0 208 48"><path d="M47.5 0 23.8 4.5 0 0v39.9l9.8-1.8V48l14-12.6 23.7 4.5V0z" style="fill:#00b3e5"/><path d="M201.1 24.9v-7.3h-2.3v-2.8h2.3v-3.7h3.1v3.7h3.7v2.8h-3.7v7c0 .8.1 1.4.4 1.8.3.3.8.5 1.6.5.5 0 1.2-.2 1.2-.2l.3 3s-.8.3-1.8.3c-1.7 0-3-.4-3.6-1.2-.8-.8-1.2-2.1-1.2-3.9zm-6.5-.9 3.2.7c-.3 1.8-1 3.2-2.1 4.2s-2.5 1.5-4.3 1.5c-2 0-3.7-.7-5-2.1-1.3-1.4-2-3.4-2-5.9 0-2.4.7-4.3 2-5.8s3-2.2 5-2.2c1.7 0 3.1.5 4.3 1.6 1.1 1 1.8 2.4 2 4l-3 .5c-.3-2.1-1.4-3.1-3.1-3.1-1.1 0-2.1.4-2.8 1.3-.7.9-1 2.1-1 3.7s.3 2.8 1 3.7c.7.9 1.6 1.3 2.8 1.3 1.6.1 2.6-1.1 3-3.4zm-14.7 1 2.3 1.9c-1.5 2.4-3.5 3.6-6.2 3.6-2.1 0-3.8-.7-5.1-2.2-1.3-1.5-2-3.4-2-5.8s.7-4.3 2-5.8 3-2.2 4.9-2.2c2 0 3.6.7 4.9 2.1 1.3 1.5 1.9 3.4 1.9 5.8v1h-10.5c.1 1.3.4 2.2 1 3s1.6 1.2 2.7 1.2c.6 0 1-.1 1.5-.2s.8-.4 1.1-.7.6-.6.7-.8c.4-.3.6-.6.8-.9zm-7.7-4.1h7.3c-.1-1-.4-1.9-1-2.6-.6-.7-1.5-1-2.7-1-1.1 0-1.9.4-2.6 1.1-.6.7-.9 1.5-1 2.5zm-12.9 14 .6-2.9s1.4.3 2.2.3c.8 0 1.3-.5 1.3-1.4v-16h3.2V31c0 3.2-2 4.6-4.4 4.6-1.7-.1-2.9-.7-2.9-.7zm4-22.5V9.1h3.3v3.2l-3.3.1zm-4.2 15.9c-1.3 1.4-3 2.1-5 2.1s-3.7-.7-5-2.1c-1.3-1.4-2-3.4-2-5.9 0-2.5.7-4.4 2-5.9 1.4-1.4 3-2.1 4.9-2.1 1.9 0 3.6.7 4.9 2.1s2 3.4 2 5.9-.5 4.5-1.8 5.9zm-5-.8c1.1 0 2-.4 2.7-1.3.7-.9 1-2.1 1-3.7s-.4-2.8-1-3.7c-.7-.9-1.6-1.3-2.7-1.3s-2 .4-2.8 1.3c-.7.9-1 2.1-1 3.7s.4 2.9 1 3.8c.8.7 1.7 1.2 2.8 1.2zM139 30V14.9h3.1v1.6h.1c.3-.6.7-1 1.3-1.4.5-.3 1.2-.5 1.8-.5.4 0 .9.1 1.4.3L146 18c-.6-.2-.9-.2-1.2-.2-1.8 0-2.7 1.3-2.7 3.8V30H139zm-16.6 0V10h7.9c2 0 3.6.6 4.9 1.7 1.2 1.1 1.9 2.7 1.9 4.6 0 1.9-.6 3.5-1.8 4.6-1.2 1.1-2.9 1.7-4.9 1.7h-4.6V30h-3.4zm3.3-10.5h4.5c1 0 1.8-.3 2.4-.8s1-1.3 1-2.3c0-1.1-.3-1.9-1-2.4s-1.5-.8-2.4-.8h-4.5v6.3zm-8.9 5.5 2.3 1.9c-1.5 2.4-3.5 3.6-6.2 3.6-2.1 0-3.8-.7-5.1-2.2s-2-3.4-2-5.8.7-4.3 2-5.8 3-2.2 4.9-2.2c2 0 3.6.7 4.9 2.1 1.3 1.5 1.9 3.4 1.9 5.8v1H109c.1 1.3.4 2.2 1 3 .7.7 1.6 1.2 2.7 1.2.6 0 1-.1 1.5-.2s.8-.4 1.1-.7.6-.6.7-.8c.4-.3.6-.6.8-.9zm-7.7-4.1h7.3c-.1-1-.4-1.9-1-2.6s-1.5-1-2.7-1c-1.1 0-1.9.4-2.6 1.1-.6.7-.9 1.5-1 2.5zM100 30V9.2h3.3V30H100zm-16 0V9.2h3.2v7.2h.1c1-1.3 2.3-1.9 4-1.9 1.9 0 3.4.7 4.6 2.2 1.2 1.5 1.8 3.4 1.8 5.8 0 2.5-.6 4.4-1.8 5.8-1.2 1.5-2.8 2.1-4.7 2.1-1.6 0-3-.6-4.1-1.9H87V30h-3zm3.2-9.2v3.4c0 .9.3 1.7.9 2.3.6.6 1.5.9 2.5.9 1.2 0 2.1-.4 2.8-1.3.7-.9 1-2.1 1-3.8 0-1.6-.3-2.9-1-3.8-.7-.9-1.6-1.3-2.8-1.3-1 0-1.9.3-2.5 1-.6.9-.9 1.6-.9 2.6zm-9.5-8.4V9.1H81v3.2l-3.3.1zm.1 17.6V14.9H81V30h-3.2zm-17.5 0V10h8.2c1.8 0 3.2.5 4.2 1.5s1.6 2.3 1.6 3.8c0 1.7-.8 3-2.3 3.9v.1c.8.4 1.6.9 2.1 1.7.6.8.9 1.7.9 2.9 0 4.1-2.4 6.1-7.3 6.1h-7.4zm3.4-11.8h4.4c.9 0 1.7-.2 2.2-.6.5-.4.8-1 .8-1.9s-.3-1.5-.8-1.9c-.5-.4-1.2-.7-2.2-.7h-4.3l-.1 5.1zm0 8.7h3.5c.6 0 1 0 1.5-.1.4 0 .8-.1 1.2-.2.4-.1.8-.3 1-.5.3-.2.4-.5.6-.9.2-.4.3-.8.3-1.4 0-1.2-.4-1.9-1.1-2.3-.7-.4-1.9-.6-3.4-.6h-3.6v6z" style="fill:#010101"/></svg>
